<svg width="125" height="40" viewBox="0 0 564 175" fill="none" xmlns="http://www.w3.org/2000/svg">
<path d="M125.654 109.067C125.654 145.571 97.4799 175 62.8269 175C28.174 175 0 145.561 0 109.375C0 89.322 9.10334 72.871 17.8566 63.54C22.7551 57.866 31.4135 61.455 31.4135 68.872V98.0955C31.4135 110.117 40.5659 120.141 52.0807 120.292C63.7758 120.483 73.2981 110.605 73.2981 98.4375C73.2981 68.3595 16.0012 65.584 56.2334 3.69142C60.6508 -3.04882 70.6803 0.0102675 70.6803 8.14505C70.3857 43.4082 125.654 51.167 125.654 109.067Z" fill="white"/>
<path d="M208.562 109.424V100.635H242.986C245.184 100.635 246.99 102.832 246.99 105.029C246.99 107.227 245.184 109.424 242.986 109.424H208.562ZM238.201 75C240.398 75 242.205 77.1973 242.205 79.3945C242.205 81.5918 240.398 83.8379 238.201 83.8379H208.562V75H238.201ZM258.611 91.1133C263.299 88.1348 266.229 83.3008 266.229 77.002C266.375 65.5762 256.756 59.375 245.379 59.4238H182.977V125.049H250.213C261.492 125.049 271.16 118.896 271.014 107.422C271.014 99.1699 266.033 93.5059 258.611 91.1133ZM340.154 92.9688C340.301 103.76 331.414 105.615 320.965 105.762C310.467 105.615 301.629 103.76 301.727 92.9688V59.3262H276.141V94.5801C276.043 119.385 296.355 126.514 320.965 126.562C345.574 126.514 365.887 119.385 365.789 94.5801V59.3262H340.154V92.9688ZM377.312 59.375V125H402.898V108.984H425.75L438.104 125H465.35L451.043 106.592C455.34 104.59 458.807 101.562 461.395 97.6074C464.031 93.6035 465.35 89.1113 465.35 84.1797C465.545 70.6055 454.07 59.2285 440.545 59.375H377.312ZM434.1 78.5645C437.225 78.5645 439.715 81.0547 439.715 84.1797C439.715 85.6934 439.178 87.0117 438.055 88.1348C436.98 89.209 435.662 89.7461 434.1 89.7461H402.898V78.5645H434.1ZM537.322 94.0918L508.514 59.3262H473.309V124.951H498.895V84.8633L534.148 124.951H562.957V59.3262H537.322V94.0918Z" fill="white"/>
</svg>
